<?xml version="1.0" encoding="UTF-8"?>
<svg xmlns="http://www.w3.org/2000/svg" version="1.0" width="350.000000pt" height="350.000000pt" viewBox="0 0 350.000000 350.000000" preserveAspectRatio="xMidYMid meet" style="background: transparent;">

<g transform="translate(0.000000,350.000000) scale(0.100000,-0.100000)" fill="#000000" stroke="none">
<path d="M1505 3306 c-696 -116 -1228 -682 -1304 -1388 -65 -594 217 -1181 722 -1502 146 -93 348 -175 527 -213 67 -14 130 -18 300 -18 189 0 228 3 319 23 304 68 555 206 771 422 213 213 348 449 421 732 181 712 -163 1469 -816 1795 -125 63 -220 98 -355 130 -90 22 -133 26 -305 29 -135 2 -226 -1 -280 -10z m390 -26 c86 -10 243 -38 257 -46 3 -2 -2 -37 -13 -76 -10 -40 -15 -76 -11 -79 4 -4 37 -16 74 -29 141 -45 309 -144 444 -259 l58 -50 59 52 60 52 45 -50 c94 -106 184 -239 250 -371 31 -62 102 -256 102 -279 0 -8 -28 -21 -70 -31 -48 -13 -70 -23 -70 -34 0 -8 7 -51 16 -95 22 -112 22 -353 0 -469 -9 -49 -15 -94 -13 -101 3 -6 35 -20 71 -29 38 -11 66 -24 66 -31 0 -26 -72 -220 -110 -294 -21 -42 -65 -116 -97 -166 -61 -92 -178 -235 -193 -235 -9 0 -14 4 -76 63 l-40 37 -57 -49 c-129 -113 -303 -215 -445 -261 -37 -13 -70 -25 -74 -29 -4 -3 1 -39 12 -79 13 -53 15 -74 7 -77 -126 -40 -365 -62 -516 -47 -128 13 -260 37 -274 51 -5 5 -3 37 5 72 7 35 13 68 13 73 0 4 -42 23 -92 41 -155 55 -319 154 -430 259 l-53 49 -54 -52 c-30 -28 -59 -51 -65 -51 -31 0 -219 258 -291 401 -38 74 -110 268 -110 294 0 7 28 20 65 30 36 10 68 22 71 27 3 4 -2 52 -11 106 -21 122 -21 346 -1 462 22 122 25 114 -54 134 -39 10 -70 24 -70 30 0 29 64 199 110 291 58 119 105 191 197 304 95 118 92 116 157 52 l55 -55 53 50 c111 104 265 197 420 254 57 21 103 42 103 47 0 4 -6 37 -13 72 -8 35 -10 67 -5 72 11 11 137 37 233 48 107 12 201 12 305 1z"/>
<path d="M1596 3080 c-583 -74 -1051 -521 -1150 -1099 -20 -121 -21 -340 -1 -457 88 -505 452 -917 937 -1058 140 -41 205 -49 363 -50 167 0 255 12 395 56 479 152 829 553 915 1052 20 117 19 336 -1 457 -82 479 -430 888 -884 1037 -170 57 -412 83 -574 62z m188 -56 c32 -32 10 -94 -34 -94 -26 0 -50 27 -50 55 0 28 24 55 50 55 10 0 26 -7 34 -16z m148 -155 c37 -5 104 -21 150 -35 398 -126 694 -462 773 -876 21 -114 20 -320 -4 -433 -52 -242 -159 -437 -333 -600 -218 -205 -472 -307 -768 -308 -307 0 -588 119 -800 340 -216 224 -320 482 -320 793 0 323 118 602 348 822 260 249 584 349 954 297z m-754 -11 c7 -7 12 -24 12 -38 0 -33 -17 -50 -50 -50 -33 0 -50 17 -50 50 0 33 17 50 50 50 14 0 31 -5 38 -12z m1228 -13 c15 -23 15 -27 0 -50 -11 -17 -26 -25 -44 -25 -35 0 -52 16 -52 50 0 34 17 50 52 50 18 0 33 -8 44 -25z m-1678 -437 c19 -19 14 -63 -9 -84 -19 -17 -23 -17 -47 -3 -32 17 -40 59 -17 83 19 19 56 21 73 4z m2116 -4 c24 -24 20 -61 -9 -80 -23 -15 -27 -15 -50 0 -27 18 -34 63 -13 84 17 17 54 15 72 -4z m-2272 -629 c27 -59 -49 -107 -86 -54 -24 36 0 79 45 79 22 0 32 -7 41 -25z m2444 0 c15 -23 15 -27 0 -50 -29 -44 -96 -24 -96 29 0 50 67 65 96 21z m-2298 -601 c24 -17 30 -62 10 -82 -30 -30 -88 -2 -88 43 0 20 32 55 50 55 3 0 16 -7 28 -16z m2120 0 c41 -29 19 -94 -32 -94 -47 0 -65 52 -31 86 28 28 33 29 63 8z m-1660 -456 c7 -7 12 -24 12 -38 0 -33 -17 -50 -51 -50 -48 0 -67 48 -36 88 12 15 59 16 75 0z m1220 0 c7 -7 12 -24 12 -38 0 -34 -17 -50 -52 -50 -41 0 -65 59 -36 88 15 15 61 15 76 0z m-617 -158 c38 -21 15 -100 -28 -100 -44 0 -69 63 -37 94 18 19 38 20 65 6z"/>
<path d="M1620 2800 l0 -40 130 0 130 0 0 40 0 40 -130 0 -130 0 0 -40z"/>
<path d="M1485 2810 c-38 -10 -83 -23 -98 -29 -27 -10 -27 -11 -12 -40 20 -40 24 -42 75 -26 25 8 64 19 88 25 41 10 42 12 42 50 0 46 1 46 -95 20z"/>
<path d="M1920 2790 c0 -38 1 -40 43 -50 23 -6 62 -17 87 -25 51 -16 55 -14 75 26 15 29 15 30 -12 40 -34 14 -163 49 -180 49 -8 0 -13 -14 -13 -40z"/>
<path d="M1265 2729 c-22 -12 -68 -39 -102 -61 l-62 -40 16 -34 c9 -19 20 -34 25 -34 5 0 34 17 66 39 31 21 77 49 102 61 25 12 46 24 48 25 8 7 -29 65 -41 65 -6 -1 -30 -10 -52 -21z"/>
<path d="M2155 2719 c-9 -17 -15 -32 -13 -34 2 -1 23 -13 48 -25 25 -13 73 -41 108 -63 35 -22 64 -38 66 -36 2 2 11 18 20 36 l16 31 -53 35 c-58 38 -151 87 -166 87 -6 0 -18 -14 -26 -31z"/>
<path d="M1615 2724 c-86 -14 -201 -51 -291 -95 -249 -121 -435 -349 -512 -627 -23 -86 -26 -115 -26 -252 0 -135 4 -167 26 -251 48 -178 139 -330 275 -460 316 -302 781 -354 1163 -129 100 59 239 194 311 302 60 91 108 203 134 310 23 92 30 282 15 375 -62 392 -343 705 -720 803 -83 22 -298 35 -375 24z m350 -114 c308 -79 555 -327 636 -638 11 -42 23 -126 26 -187 20 -416 -256 -787 -668 -896 -118 -32 -300 -32 -418 0 -347 92 -599 368 -657 720 -63 379 132 762 476 935 186 94 405 118 605 66z"/>
<path d="M1656 2233 c-49 -120 -90 -219 -91 -220 0 -1 -106 -11 -234 -22 -128 -11 -235 -22 -238 -24 -2 -2 75 -73 172 -157 104 -91 175 -160 175 -171 0 -10 -22 -114 -50 -232 -27 -118 -50 -217 -50 -221 0 -8 39 14 253 145 l158 97 201 -124 c111 -68 204 -122 206 -120 2 2 -13 71 -32 152 -55 233 -66 284 -66 303 0 10 73 81 175 171 96 84 173 155 171 157 -2 2 -106 13 -231 23 -125 11 -230 22 -234 25 -5 2 -48 101 -97 220 -49 118 -91 215 -94 215 -3 0 -45 -98 -94 -217z"/>
<path d="M1285 2408 c-32 -19 -44 -40 -45 -81 0 -78 86 -115 147 -63 39 34 39 98 0 132 -30 26 -70 30 -102 12z"/>
<path d="M2113 2396 c-22 -19 -28 -32 -28 -66 0 -34 6 -47 28 -66 59 -51 147 -15 147 60 0 48 -8 65 -41 81 -40 21 -74 18 -106 -9z"/>
<path d="M1018 1593 c-76 -47 -38 -168 53 -165 91 2 117 127 34 166 -41 20 -53 20 -87 -1z"/>
<path d="M2388 1595 c-78 -43 -42 -170 48 -168 90 3 122 120 45 166 -35 21 -57 21 -93 2z"/>
<path d="M1713 1095 c-55 -24 -71 -90 -33 -138 27 -34 70 -43 110 -22 103 53 30 206 -77 160z"/>
<path d="M990 2525 c-41 -41 -76 -78 -78 -83 -1 -5 12 -17 31 -26 l33 -18 66 68 66 68 -16 33 c-9 18 -18 33 -22 33 -3 0 -40 -34 -80 -75z"/>
<path d="M2408 2566 l-16 -33 68 -68 68 -67 31 18 c17 10 31 21 31 25 0 8 -151 159 -160 159 -3 0 -14 -15 -22 -34z"/>
<path d="M856 2368 c-33 -45 -96 -161 -96 -179 0 -12 60 -56 64 -47 10 24 76 144 97 176 16 24 29 45 29 47 0 5 -56 35 -64 35 -3 0 -16 -15 -30 -32z"/>
<path d="M2578 2384 c-16 -8 -28 -17 -28 -19 0 -2 13 -23 29 -47 28 -42 85 -146 93 -168 5 -16 68 21 68 39 0 30 -110 212 -128 211 -4 -1 -19 -8 -34 -16z"/>
<path d="M712 2063 c-11 -43 -23 -93 -27 -110 -7 -33 -6 -33 34 -33 36 0 41 3 47 28 3 15 14 56 25 92 10 35 17 65 16 65 -1 1 -14 9 -29 18 -15 9 -31 17 -36 17 -5 0 -18 -35 -30 -77z"/>
<path d="M2717 2122 c-15 -9 -25 -23 -22 -30 6 -17 32 -110 39 -144 6 -25 11 -28 47 -28 l40 0 -7 38 c-11 62 -49 175 -59 178 -6 2 -22 -4 -38 -14z"/>
<path d="M670 1750 l0 -130 40 0 40 0 0 130 0 130 -40 0 -40 0 0 -130z"/>
<path d="M2750 1750 l0 -130 40 0 40 0 0 130 0 130 -40 0 -40 0 0 -130z"/>
<path d="M686 1543 c9 -53 44 -166 54 -176 4 -5 21 -1 36 9 16 10 30 18 31 19 1 0 -4 23 -12 50 -8 28 -19 69 -25 93 -10 41 -12 42 -51 42 l-40 0 7 -37z"/>
<path d="M2730 1538 c-6 -24 -17 -65 -25 -93 -8 -27 -13 -50 -12 -50 1 -1 15 -9 31 -19 15 -10 32 -14 36 -9 10 10 45 123 54 176 l7 37 -40 0 c-39 0 -41 -1 -51 -42z"/>
<path d="M788 1342 c-16 -10 -28 -24 -28 -32 0 -15 77 -156 105 -194 13 -17 18 -17 45 -6 17 7 33 16 35 20 3 5 -11 32 -30 62 -20 29 -48 79 -63 110 -15 32 -29 57 -32 57 -3 0 -17 -8 -32 -17z"/>
<path d="M2664 1335 c-3 -14 -31 -64 -60 -111 -30 -47 -52 -89 -49 -94 2 -4 18 -13 35 -20 27 -11 32 -11 45 6 29 39 105 180 105 195 0 13 -10 21 -62 47 -4 2 -10 -8 -14 -23z"/>
<path d="M938 1084 c-16 -8 -28 -18 -28 -22 0 -10 158 -167 163 -161 3 2 12 18 20 35 l16 31 -66 67 c-37 36 -69 66 -72 66 -3 -1 -18 -8 -33 -16z"/>
<path d="M2453 1031 l-62 -66 21 -33 21 -34 78 78 c44 43 79 82 79 86 0 9 -55 39 -67 37 -4 -1 -36 -31 -70 -68z"/>
<path d="M1117 906 l-16 -34 53 -35 c59 -39 150 -87 165 -87 10 0 46 59 39 65 -2 1 -23 13 -48 25 -25 12 -71 40 -102 61 -32 22 -61 39 -66 39 -5 0 -16 -15 -25 -34z"/>
<path d="M2330 925 c-14 -13 -162 -101 -183 -108 -12 -4 20 -67 34 -67 15 0 106 48 165 87 l53 35 -16 34 c-18 37 -31 42 -53 19z"/>
<path d="M1380 768 c-11 -18 -16 -36 -12 -39 9 -9 125 -44 175 -53 l37 -7 0 40 c0 39 -1 41 -42 51 -24 6 -63 18 -87 25 -25 8 -46 15 -48 15 -2 0 -12 -15 -23 -32z"/>
<path d="M2045 785 c-22 -8 -59 -19 -82 -25 -42 -10 -43 -12 -43 -51 l0 -40 38 7 c49 9 165 44 174 53 8 7 -28 71 -39 70 -5 0 -26 -7 -48 -14z"/>
<path d="M1620 700 l0 -40 130 0 130 0 0 40 0 40 -130 0 -130 0 0 -40z"/>
</g>
</svg>